<?xml version="1.0" encoding="utf-8"?>
<!-- Generator: Adobe Illustrator 16.0.0, SVG Export Plug-In . SVG Version: 6.00 Build 0)  -->
<!DOCTYPE svg PUBLIC "-//W3C//DTD SVG 1.1//EN" "http://www.w3.org/Graphics/SVG/1.1/DTD/svg11.dtd">
<svg version="1.1" id="Layer_1" focusable="false" xmlns="http://www.w3.org/2000/svg" xmlns:xlink="http://www.w3.org/1999/xlink"
	 x="0px" y="0px" width="612px" height="544px" viewBox="0 124 612 544" enable-background="new 0 124 612 544"
	 xml:space="preserve">
<path fill="#FFFFFF" d="M561.128,444.151l50.228-221c3.626-15.957-8.503-31.151-24.866-31.151H169.159l-9.739-47.61
	c-2.427-11.867-12.869-20.39-24.982-20.39H25.5C11.417,124,0,135.417,0,149.5v17C0,180.583,11.417,192,25.5,192h74.25
	l74.639,364.899c-17.856,10.27-29.889,29.524-29.889,51.601c0,32.861,26.639,59.5,59.5,59.5s59.5-26.639,59.5-59.5
	c0-16.653-6.85-31.699-17.875-42.5h222.75c-11.024,10.801-17.874,25.847-17.874,42.5c0,32.861,26.639,59.5,59.5,59.5
	s59.5-26.639,59.5-59.5c0-23.558-13.693-43.915-33.553-53.556l5.861-25.793c3.627-15.957-8.502-31.151-24.865-31.151H231.75
	l-6.954-34h311.466C548.168,464,558.489,455.762,561.128,444.151z"/>
</svg>
