<?xml version="1.0" encoding="utf-8"?>
<!-- Generator: Adobe Illustrator 16.0.0, SVG Export Plug-In . SVG Version: 6.00 Build 0)  -->
<!DOCTYPE svg PUBLIC "-//W3C//DTD SVG 1.1//EN" "http://www.w3.org/Graphics/SVG/1.1/DTD/svg11.dtd">
<svg version="1.1" id="Layer_1" focusable="false" xmlns="http://www.w3.org/2000/svg" xmlns:xlink="http://www.w3.org/1999/xlink"
	 x="0px" y="0px" width="612px" height="699.428px" viewBox="0 46.286 612 699.428" enable-background="new 0 46.286 612 699.428"
	 xml:space="preserve">
<path fill="#FFFFFF" d="M306,396c96.581,0,174.857-78.276,174.857-174.857c0-96.581-78.276-174.857-174.857-174.857
	s-174.857,78.276-174.857,174.857C131.143,317.724,209.419,396,306,396z M428.4,439.714h-22.813
	c-30.327,13.935-64.069,21.857-99.587,21.857c-35.518,0-69.123-7.923-99.586-21.857H183.6C82.237,439.714,0,521.952,0,623.314
	v56.828c0,36.201,29.371,65.571,65.571,65.571h480.857c36.201,0,65.571-29.37,65.571-65.571v-56.828
	C612,521.952,529.763,439.714,428.4,439.714z"/>
</svg>
